<?xml version="1.0" encoding="UTF-8" standalone="no"?>
<svg
   xmlns:dc="http://purl.org/dc/elements/1.1/"
   xmlns:cc="http://creativecommons.org/ns#"
   xmlns:rdf="http://www.w3.org/1999/02/22-rdf-syntax-ns#"
   xmlns:svg="http://www.w3.org/2000/svg"
   xmlns="http://www.w3.org/2000/svg"
   version="1.0"
   id="svg2169"
   height="192"
   width="192">
  <defs
     id="defs2171" />
  <metadata
     id="metadata2174">
    <rdf:RDF>
      <cc:Work
         rdf:about="">
        <dc:format>image/svg+xml</dc:format>
        <dc:type
           rdf:resource="http://purl.org/dc/dcmitype/StillImage" />
        <dc:title></dc:title>
      </cc:Work>
    </rdf:RDF>
  </metadata>
  <g
     transform="translate(-627.65749,-170.17425)"
     id="layer1">
    <g
       transform="matrix(1.536574,0,0,1.536574,-336.75304,-194.33329)"
       id="g4355">
      <rect
         style="opacity:1;fill:#ffffff;fill-opacity:1;fill-rule:nonzero;stroke:none;stroke-width:3.7809999;stroke-linecap:square;stroke-linejoin:miter;stroke-miterlimit:4;stroke-dasharray:none;stroke-dashoffset:0;stroke-opacity:1"
         id="rect4287"
         width="79.835548"
         height="64.22477"
         x="653.06494"
         y="257.16495" />
      <path
         style="color:#000000;display:inline;overflow:visible;visibility:visible;opacity:1;fill:#366994;fill-opacity:1;fill-rule:nonzero;stroke:none;stroke-width:10.64999962;stroke-linecap:butt;stroke-linejoin:miter;stroke-miterlimit:4;stroke-dasharray:none;stroke-dashoffset:0;stroke-opacity:1;marker:none;marker-start:none;marker-mid:none;marker-end:none"
         d="m 692.63721,299.4273 c -13.04205,0 -19.83869,3.97019 -23.17193,8.23724 -1.88012,2.35327 -2.82954,5.41069 -3.10738,8.25417 l 0,16.66831 0,4.4696 0,19.57214 1.90212,-0.0997 c 12.38,-0.64746 18.64497,-5.26379 21.51276,-9.92721 1.37342,-2.30998 2.19165,-5.25202 2.3993,-7.73852 l 0,-11.7828 0.0301,0 0,0.58339 0,4.40938 0,6.79003 0.004,0 0,0.77536 0.004,-0.1148 c 0,0 -0.23312,4.55598 3.32964,8.81688 3.56278,4.26089 10.75342,8.19018 24.66538,8.19018 13.96079,0 21.01511,-4.57836 24.28496,-9.4398 3.26984,-4.86142 2.71381,-9.85381 2.71381,-9.85381 l 0.0113,0.20325 0,-3.27457 0.0301,0 0,-9.60729 0,-21.19249 0,-3.93889 -29.19845,0 0,3.93889 0,21.19249 0,4.31904 -0.0301,0 0,-1.21385 -0.049,-10.54072 0,0 c -9.7e-4,-1.64064 -0.24854,-4.60118 -2.51419,-8.20713 -3.05199,-4.85743 -9.72169,-9.48872 -22.81599,-9.48872 z"
         id="path4229" />
      <path
         style="color:#000000;display:inline;overflow:visible;visibility:visible;opacity:1;fill:#ffc331;fill-opacity:1;fill-rule:nonzero;stroke:none;stroke-width:10.64999962;stroke-linecap:butt;stroke-linejoin:miter;stroke-miterlimit:4;stroke-dasharray:none;stroke-dashoffset:0;stroke-opacity:1;marker:none;marker-start:none;marker-mid:none;marker-end:none"
         d="m 59.818359,1.890625 c -30.63653,0 -45.280822,7.6935437 -52.1640621,15.839844 -6.4091577,7.585213 -5.7990302,15.413621 -5.6835938,16.46875 l 0,8.207031 -0.042969,0 0,45.076172 -0.037109,0 0,11.183594 0.00391,-0.119141 c 0,0 -0.2335712,4.664635 3.3867188,9.056645 3.62029,4.392 10.9315741,8.4787 25.0527341,8.59765 l 1.90625,0.0156 0,-23.304691 0,-3.539062 0,-32.466797 26.544922,0 52.2207,0 5.04102,0 0.0683,-27.910156 c 0.0458,-0.495012 0.14656,-2.181032 -0.39257,-4.423828 -0.63846,-2.65596 -2.17967,-6.153805 -5.60938,-9.552735 C 103.25386,8.2216713 89.105929,1.890625 59.818359,1.890625 Z m 30.535157,21.3125 c 4.49066,0 8.072265,3.581596 8.072265,8.072266 0,4.49066 -3.581165,8.070312 -8.072265,8.070312 -4.49112,0 -8.072266,-3.579652 -8.072266,-8.070312 0,-4.49067 3.581586,-8.072266 8.072266,-8.072266 z"
         transform="translate(631.09108,240.65454)"
         id="path4154" />
      <path
         style="color:#000000;font-style:normal;font-variant:normal;font-weight:normal;font-stretch:normal;font-size:medium;line-height:normal;font-family:sans-serif;text-indent:0;text-align:start;text-decoration:none;text-decoration-line:none;text-decoration-style:solid;text-decoration-color:#000000;letter-spacing:normal;word-spacing:normal;text-transform:none;direction:ltr;block-progression:tb;writing-mode:lr-tb;baseline-shift:baseline;text-anchor:start;white-space:normal;clip-rule:nonzero;display:inline;overflow:visible;visibility:visible;opacity:1;isolation:auto;mix-blend-mode:normal;color-interpolation:sRGB;color-interpolation-filters:linearRGB;solid-color:#000000;solid-opacity:1;fill:#ffffff;fill-opacity:1;fill-rule:nonzero;stroke:none;stroke-width:10.64999962;stroke-linecap:butt;stroke-linejoin:miter;stroke-miterlimit:4;stroke-dasharray:none;stroke-dashoffset:0;stroke-opacity:1;marker:none;color-rendering:auto;image-rendering:auto;shape-rendering:auto;text-rendering:auto;enable-background:accumulate"
         d="m 59.818359,-3.4335938 c -31.52802,0 -48.012831,7.9986826 -56.2324215,17.7265628 -7.2893291,8.626896 -7.1475445,17.561677 -6.9394531,20.058593 l 0,2.730469 -0.042969,0 0,45.076172 -0.037109,0 0,16.507813 0.054688,0 c -0.013,0.58737 -0.091709,6.692174 4.5507812,12.324214 4.7893098,5.81024 13.8485244,10.32067 28.7695314,10.52539 2.381959,0.0327 4.270999,-0.13559 7.623047,-0.33007 11.399423,-0.66136 18.870042,-4.64965 23.302735,-9.62696 4.891539,5.48837 13.757383,9.64258 28.246093,9.64258 15.124988,0 24.317908,-5.27326 28.703128,-11.79297 2.91509,-4.33399 3.39308,-8.04206 3.48437,-10.572262 l 0.17774,0 0,-14.931641 0,-21.191406 0,-9.265625 -0.0977,0 0.0586,-24.316407 c 0.0729,-1.04099 0.10771,-3.112132 -0.53906,-5.802734 -0.84531,-3.51643 -2.87848,-7.968557 -7.03906,-12.091797 C 105.57576,3.0251181 89.873329,-3.4335938 59.818359,-3.4335938 Z m 0,10.6484376 c 28.52017,0 41.113601,6.2033802 46.546871,11.5878902 2.69884,2.67462 3.74808,5.218182 4.17969,7.013672 0.36216,1.50658 0.27709,2.586773 0.26758,2.689453 l -0.0215,0.238282 -0.0566,22.83789 -51.949224,0 -31.86914,0 0,37.791016 0,3.539062 0,17.689451 C 16.506026,109.89751 11.557335,106.84537 9.390625,104.2168 7.023085,101.34459 7.2122106,98.827319 7.2128906,98.818359 l 0,-0.0059 0.00391,-0.0918 -2.1894531,-0.08984 2.1875,0.03516 0,-5.859375 0.037109,0 0,-45.076172 0.042969,0 0,-13.822266 -0.03125,-0.289062 C 7.2372719,33.378161 6.5867662,27.246269 11.722656,21.167969 17.269536,14.603239 30.073319,7.2148438 59.818359,7.2148438 Z M 90.353516,17.878906 c -7.32203,0 -13.396485,6.074475 -13.396485,13.396485 0,7.32166 6.075825,13.394531 13.396485,13.394531 7.32064,0 13.396484,-6.072851 13.396484,-13.394531 0,-7.32203 -6.074474,-13.396485 -13.396484,-13.396485 z m 0,10.648438 c 1.6593,0 2.748046,1.088737 2.748046,2.748047 0,1.65964 -1.086496,2.746093 -2.748046,2.746093 -1.66159,0 -2.748047,-1.086433 -2.748047,-2.746093 0,-1.65933 1.088707,-2.748047 2.748047,-2.748047 z M 61.544922,64.097656 c 11.83871,0 16.304714,3.808737 18.308594,6.998047 1.66011,2.64219 1.696605,4.268213 1.697265,5.376953 l 0.0039,5.320313 0.02148,0 0.02344,5.228515 0,6.527344 10.679688,0 0,-9.644531 0,-19.806641 18.548821,0 0,19.806641 0,4.283203 -0.0293,0 0,8.599609 1.64844,-0.04687 -1.65235,0.138672 0.0117,0.203125 1.63477,-0.04492 -1.6211,0.134766 c 0,0 0.33171,3.064418 -1.83984,6.292968 -2.15449,3.20317 -7.0706,7.08594 -19.867187,7.08594 -12.9093,0 -18.245588,-3.48737 -20.580078,-6.2793 -2.28692,-2.73506 -2.098376,-5.114085 -2.097656,-5.123045 l 0,-0.0059 0.0039,-0.08789 -0.126953,-0.0059 c 0.002,-0.0218 0.01002,-0.04461 0.01172,-0.06641 l 0.115234,0.002 0,-6.099609 -0.0039,0 0,-1.464844 0,-4.410156 0,-5.908204 -10.679688,0 0,16.75 c -0.15339,1.660751 -0.823958,3.954208 -1.636718,5.337888 -1.64055,2.64983 -5.346234,5.69921 -13.527344,6.86328 l 0,-13.650386 0,-4.46875 0,-16.263672 c 0.21593,-2.00699 0.938756,-4.080968 1.941406,-5.335938 l 0.01953,-0.02344 0.01758,-0.02148 c 2.15789,-2.762429 7.01323,-6.191406 18.97461,-6.191406 z"
         transform="translate(631.09108,240.65454)"
         id="path4327" />
    </g>
  </g>
</svg>
